<svg xmlns="http://www.w3.org/2000/svg" xmlns:xlink="http://www.w3.org/1999/xlink" width="8" height="46" fill="#000" fill-opacity="1" stroke="#000" stroke-dasharray="none" stroke-dashoffset="0" stroke-linecap="square" stroke-linejoin="miter" stroke-miterlimit="10" stroke-opacity="1" stroke-width="1" color-interpolation="auto" color-rendering="auto" font-family="'Dialog'" font-size="12" font-style="normal" font-weight="normal" image-rendering="auto" shape-rendering="auto" text-rendering="auto"><g><g fill="silver" stroke="silver"><rect width="8" height="46" x="0" y="0" stroke="none"/><rect width="2" height="2" x="3" y="2" fill="#000" stroke="none"/><rect width="2" height="2" x="3" y="4" fill="#000" stroke="none"/><rect width="2" height="2" x="3" y="6" fill="#000" stroke="none"/><rect width="2" height="2" x="3" y="8" fill="#000" stroke="none"/><rect width="2" height="2" x="3" y="10" fill="#000" stroke="none"/><rect width="2" height="2" x="3" y="12" fill="#000" stroke="none"/><rect width="2" height="2" x="3" y="14" fill="#000" stroke="none"/><rect width="2" height="2" x="3" y="16" fill="#000" stroke="none"/><rect width="2" height="2" x="3" y="18" fill="#000" stroke="none"/><rect width="2" height="2" x="3" y="20" fill="#000" stroke="none"/><rect width="2" height="2" x="3" y="22" fill="#000" stroke="none"/><rect width="2" height="2" x="3" y="24" fill="#000" stroke="none"/><rect width="2" height="2" x="3" y="26" fill="#000" stroke="none"/><rect width="2" height="2" x="3" y="28" fill="#000" stroke="none"/><rect width="2" height="2" x="3" y="30" fill="#000" stroke="none"/><rect width="2" height="2" x="3" y="32" fill="#000" stroke="none"/><rect width="2" height="2" x="3" y="34" fill="#000" stroke="none"/><rect width="4" height="2" x="2" y="36" fill="#000" stroke="none"/><rect width="4" height="2" x="2" y="38" fill="#000" stroke="none"/><rect width="2" height="2" x="3" y="40" fill="#000" stroke="none"/><rect width="2" height="2" x="3" y="42" fill="#000" stroke="none"/></g></g></svg>